<svg width="25" height="47" viewBox="0 0 25 47" fill="none" xmlns="http://www.w3.org/2000/svg">
<path d="M24.3057 17.0067C24.1901 17.0299 23.5016 17.0446 22.5854 17.0439C20.9278 17.0424 20.7908 17.0288 20.5194 16.841C20.4791 16.8126 20.444 16.7942 20.4134 16.7721C20.2164 16.6293 20.2164 16.3442 20.2174 12.4155C20.2174 12.1169 20.2174 11.7969 20.2174 11.4544C20.2174 7.97862 20.2342 6.37605 20.2714 6.30498C20.3381 6.17794 20.552 6.00965 20.7368 5.94005C20.8473 5.89844 21.215 5.88813 22.6104 5.88813C24.5664 5.88813 24.5965 5.89181 24.8516 6.16836L24.9789 6.30608L24.9927 11.3723C24.9937 11.7048 24.9947 12.0167 24.9957 12.3087C25.0079 16.3214 25.0084 16.6366 24.7915 16.7858C24.7574 16.8093 24.7177 16.8288 24.6713 16.8579C24.5761 16.9183 24.4111 16.9853 24.3057 17.0067ZM4.97796 10.1254C4.21102 10.2109 2.68835 10.2547 2.50298 10.1965C2.08285 10.0654 1.86743 9.82202 1.86642 9.47845C1.86591 9.24094 1.92243 9.13304 2.13225 8.96881C2.37109 8.78248 2.49534 8.75855 3.41506 8.72246C4.80074 8.66796 5.94707 8.50446 7.40964 8.15353C10.5293 7.40417 13.6633 6.03174 16.6287 4.11617C17.5316 3.53288 19.011 2.41859 18.9386 2.37662C18.928 2.36999 18.7854 2.29303 18.6224 2.20538C18.1152 1.93215 17.9848 1.59632 18.2277 1.18831C18.4177 0.870154 18.5058 0.832226 19.8935 0.472458C20.5896 0.291653 21.2746 0.11048 21.4151 0.0699735C21.9142 -0.0740075 22.4189 0.00884604 22.6705 0.275818C22.9343 0.555679 22.9404 0.620489 22.8181 1.825C22.757 2.42927 22.6827 2.97905 22.6531 3.04681C22.5294 3.33293 22.0023 3.60506 21.572 3.60506C21.2593 3.60506 21.0943 3.55314 20.8412 3.37454C20.7134 3.28432 20.6085 3.23608 20.584 3.25707C17.3574 6.00781 13.042 8.24596 8.70824 9.41622C7.45038 9.7561 6.25618 9.98294 4.97796 10.1254ZM17.5295 17.0074C17.2983 17.0538 14.4017 17.0531 14.1827 17.0067C13.9653 16.9607 13.6623 16.7681 13.5446 16.6016C13.4468 16.4636 13.4443 16.3711 13.4443 13.275C13.4443 11.109 13.4616 10.0577 13.4988 9.98736C13.5716 9.84743 13.7361 9.72517 13.9643 9.64048C14.1389 9.57603 14.282 9.57051 15.8378 9.57051C17.3905 9.57051 17.5372 9.57604 17.7113 9.64011C17.9446 9.72628 18.052 9.80987 18.1529 9.98478C18.2216 10.1034 18.2313 10.5206 18.2303 13.2978C18.2293 16.3008 18.2242 16.4831 18.1356 16.6237C18.0215 16.8053 17.7826 16.9563 17.5295 17.0074ZM10.4906 17.087C10.4906 17.1286 7.55987 17.1234 7.36636 17.0815C7.13414 17.0314 6.88868 16.8922 6.77562 16.7467C6.67377 16.6153 6.67123 16.563 6.67123 14.4342V14.3013C6.67123 12.4034 6.67123 12.1415 6.85099 11.9965C6.88409 11.9699 6.92331 11.9471 6.96914 11.9191C7.23599 11.7567 7.51812 11.7358 9.24703 11.7494L10.8293 11.7615L11.0172 11.8536C11.1262 11.907 11.2586 12.0222 11.3319 12.1279L11.4582 12.3098L11.4577 14.3558C11.4577 15.7344 11.4394 16.4492 11.4012 16.5479C11.3233 16.7515 11.0248 16.9574 10.729 17.0111C10.5976 17.0351 10.4906 17.0689 10.4906 17.087ZM4.18352 16.982L3.94672 17.101L2.39349 17.1076C1.53897 17.1117 0.777631 17.1006 0.700733 17.0833C0.448653 17.027 0.227127 16.9043 0.112545 16.757C0.00407403 16.6171 0 16.577 0 15.5842V14.5565L0.139536 14.4007C0.40282 14.1076 0.458838 14.0998 2.33493 14.0998C4.1494 14.0998 4.21713 14.1072 4.44222 14.3259C4.66477 14.5425 4.68514 14.6492 4.68514 15.5894C4.68514 16.4735 4.68412 16.4801 4.55273 16.6709C4.46361 16.8005 4.34292 16.9018 4.18352 16.982Z" fill="#FF9100"/>
<path d="M13 35.333V19.467C13 19.209 13.224 19 13.5 19C13.776 19 14 19.209 14 19.467V35.333C14 35.591 13.776 35.8 13.5 35.8C13.224 35.8 13 35.591 13 35.333ZM13 41.571V37.498C13 37.248 13.224 37.045 13.5 37.045C13.776 37.045 14 37.248 14 37.498V41.571C14 41.821 13.776 42.022 13.5 42.022C13.224 42.022 13 41.821 13 41.571ZM13 46.557V44.333C13 44.088 13.224 43.889 13.5 43.889C13.776 43.889 14 44.088 14 44.333V46.557C14 46.8 13.776 47 13.5 47C13.224 47 13 46.801 13 46.557Z" fill="#4A4A4A"/>
</svg>
