<svg width="25" height="48" viewBox="0 0 25 48" fill="none" xmlns="http://www.w3.org/2000/svg">
<path d="M10.1753 18.1883C9.76514 18.0089 9.42578 17.5375 9.33594 17.0216L9.29785 16.8035L8.99512 16.7688C8.45703 16.7075 7.99072 16.2222 7.85449 15.5801C7.80762 15.3609 7.78369 15.3285 7.66895 15.3285C7.08887 15.3285 6.479 14.7229 6.37061 14.0386C6.33887 13.8373 6.32568 13.8246 6.15576 13.8246C5.69775 13.8246 5.22754 13.4642 5.00928 12.9453C4.8501 12.567 4.83643 12.0129 4.97754 11.6456L5.06982 11.4044L4.8667 11.2442C4.75439 11.1562 4.33789 10.8422 3.94043 10.546C3.229 10.0156 3.21631 10.0092 3.09521 10.1029C2.85205 10.2921 2.62598 10.2348 1.47559 9.69396C0.876953 9.41226 0.330566 9.12883 0.26123 9.06405C0.114258 8.92696 0 8.63601 0 8.39769C0 8.17152 2.56836 0.469109 2.70166 0.296158C2.83203 0.127255 3.07422 0 3.26611 0C3.46191 0 5.60059 1.00474 5.74316 1.16323C5.88037 1.31594 6.01465 1.71101 5.99561 1.90536C5.98291 2.03377 6.02295 2.06616 6.43408 2.25762C6.88281 2.4676 6.89453 2.46933 7.82568 2.50809C9.07959 2.55957 9.80029 2.63939 10.2715 2.77821C10.4863 2.84126 10.6719 2.90489 10.6841 2.91935C10.6963 2.93381 10.8623 2.77648 11.0537 2.5694C11.4482 2.14194 11.7656 1.93717 12.167 1.84925C12.3999 1.79835 12.5776 1.81281 13.2656 1.93891C14.292 2.12748 14.2939 2.12806 14.3809 2.27556C14.481 2.44446 14.4712 2.61799 14.3521 2.79788C14.2261 2.98703 14.1846 2.98761 13.2144 2.80771C12.4355 2.66311 12.251 2.66542 11.9878 2.82218C11.9072 2.87018 11.5225 3.26352 11.1328 3.69619C10.2422 4.68415 9.53955 5.37769 8.74854 6.04925C8.01416 6.67281 7.97119 6.76998 8.31006 7.04242C8.58691 7.2657 8.79785 7.3461 9.10156 7.34552C9.65039 7.34379 10.3516 6.9707 11.0278 6.31996C11.8916 5.48933 12.1299 5.47313 12.7861 6.19965C13.7187 7.23331 14.9004 7.73481 16.0776 7.59598C16.5195 7.54393 16.5947 7.54913 16.729 7.63763C16.8125 7.69258 17.3843 8.17847 17.9995 8.71699C18.6147 9.25609 19.2749 9.83221 19.4668 9.99706L19.8154 10.2978L20.5889 9.70958C21.0142 9.38566 21.3667 9.11726 21.3726 9.11321C21.3779 9.10859 20.9312 7.75274 20.3794 6.10016C19.8271 4.44699 19.3569 3.03793 19.334 2.9691C19.293 2.84416 19.2871 2.84531 18.6426 3.13106C17.6997 3.54927 17.4375 3.58281 16.4487 3.4116C15.7769 3.29533 15.6318 3.25253 15.5396 3.14321C15.3911 2.96736 15.397 2.71748 15.5542 2.54279L15.6782 2.40397L16.46 2.53874C17.4067 2.70186 17.5381 2.68682 18.3838 2.31836C18.957 2.06848 19.0171 2.02914 19.0059 1.91114C18.9844 1.68555 19.085 1.3599 19.2251 1.20083C19.3867 1.01804 21.5117 0 21.7314 0C21.9258 0 22.1675 0.126099 22.2988 0.296158C22.4131 0.444237 23.4375 3.4625 23.4375 3.65165C23.4375 3.80725 23.2227 4.04903 23.0845 4.04903C22.8428 4.04903 22.7729 3.90732 22.2671 2.38777C21.9946 1.56929 21.7651 0.891366 21.7568 0.882111C21.7485 0.872277 21.291 1.07589 20.7397 1.33445L19.7368 1.80471L19.894 2.27613C21.8364 8.1131 22.2446 9.31277 22.2876 9.31335C22.3306 9.31335 24.2158 8.45496 24.2563 8.41678C24.2637 8.40984 24.0605 7.77472 23.8047 7.0054C23.5488 6.23609 23.3398 5.54255 23.3398 5.46388C23.3398 5.14227 23.7588 4.95544 23.9424 5.19607C24.0615 5.35166 25 8.19235 25 8.39711C25 8.6227 24.8726 8.93968 24.7266 9.07562C24.6641 9.13404 24.123 9.41111 23.5249 9.69107C22.3257 10.2521 22.1577 10.2897 21.8521 10.0659C21.6382 9.90914 21.7217 9.86923 20.8188 10.5628L20.2759 10.9804L20.3457 11.2887C20.5161 12.043 20.1904 12.8684 19.5698 13.2565C19.4023 13.3612 19.2803 13.3878 18.9575 13.389C18.6245 13.3907 18.5547 13.4063 18.5547 13.4815C18.5547 13.7563 18.3745 14.1624 18.1187 14.4649C17.8037 14.838 17.5161 14.9814 17.0811 14.9814H16.7969L16.7964 15.1694C16.7959 15.4442 16.5903 15.9214 16.3579 16.1892C16.019 16.5785 15.4448 16.7555 15.0049 16.6062C14.8569 16.5559 14.8481 16.5623 14.8164 16.7364C14.6411 17.6948 13.7783 18.301 12.9795 18.0263C12.8169 17.9702 12.5615 17.8048 12.3369 17.611L11.9648 17.2888L11.8052 17.5074C11.5552 17.8504 11.417 17.9916 11.2061 18.1194C10.9517 18.2739 10.4468 18.3074 10.1753 18.1883ZM10.8574 17.3559C10.9707 17.305 11.7588 16.2869 11.9961 15.8849C12.1836 15.5668 12.1636 15.2076 11.9434 14.9467C11.8047 14.7824 11.7427 14.7506 11.5649 14.7524C11.4482 14.7529 11.3032 14.7865 11.2437 14.8258C11.0791 14.934 10.1162 16.3066 10.0581 16.516C9.90967 17.0487 10.3984 17.563 10.8574 17.3559ZM13.7026 17.143C14.0127 16.9689 14.1592 16.6016 14.0908 16.1701C14.0645 16.0052 13.9819 15.8982 13.6187 15.5593C13.377 15.3331 13.1553 15.0861 13.126 15.0109C13.0479 14.8079 13.1147 14.5916 13.2886 14.4851C13.4888 14.3625 13.5371 14.3908 14.2739 15.0612C14.6011 15.358 14.9385 15.6443 15.0244 15.6964C15.3379 15.8867 15.6904 15.7883 15.9365 15.4419C16.0391 15.2972 16.064 15.203 16.0625 14.9623C16.062 14.7981 16.0342 14.6072 16.0015 14.5383C15.9692 14.4689 15.6787 14.1745 15.3564 13.8836C15.0288 13.588 14.7461 13.2866 14.7148 13.201C14.6162 12.928 14.7861 12.6156 15.0361 12.6116C15.1138 12.6104 15.416 12.8453 15.915 13.2947C16.8135 14.1051 16.8262 14.1138 17.104 14.1138C17.6167 14.1138 17.9824 13.4341 17.7529 12.9083C17.7148 12.821 17.3765 12.4699 17.001 12.1286C16.5571 11.7243 16.3081 11.4582 16.2891 11.3685C16.2178 11.033 16.4785 10.7357 16.7393 10.8537C16.811 10.8861 17.2461 11.2552 17.7061 11.6734C18.1655 12.0916 18.6011 12.46 18.6733 12.493C18.9595 12.6214 19.2466 12.5341 19.4712 12.2489C19.7012 11.9574 19.707 11.4859 19.4849 11.1516C19.4331 11.0735 18.7373 10.439 17.939 9.74255L16.4873 8.4752L15.751 8.46768C15.1323 8.46132 14.9399 8.43645 14.5449 8.31324C13.707 8.05121 12.9399 7.55145 12.3188 6.86369L12.0068 6.51778L11.8906 6.62827C10.9683 7.50401 10.3232 7.95056 9.7168 8.13277C9.22949 8.27911 8.63086 8.22185 8.23828 7.99221C7.64111 7.64168 7.37305 7.25066 7.37305 6.73065C7.37305 6.22799 7.50391 6.02207 8.17578 5.46793C8.73633 5.00518 9.90918 3.89228 10.0464 3.69214C10.0996 3.61463 10.0649 3.59496 9.77783 3.53943C9.4873 3.48332 8.45898 3.40466 7.10449 3.33525C6.72754 3.31616 6.59668 3.27972 6.18604 3.079C5.71045 2.84705 5.70654 2.84589 5.66553 2.96968C5.5918 3.19237 3.75293 8.69732 3.66016 8.97439L3.56982 9.24336L4.21387 9.7223C4.56836 9.98549 5.00977 10.3187 5.19482 10.4615L5.53125 10.7218L5.70215 10.4945C6.16699 9.87732 6.34277 9.68818 6.56738 9.56439C7.04785 9.29889 7.66309 9.43367 8.04688 9.88832C8.23633 10.1133 8.32568 10.3059 8.39893 10.649C8.45215 10.8994 8.45654 10.9035 8.6748 10.9191C9.21338 10.9561 9.69775 11.416 9.85156 12.0355L9.93359 12.3652L10.1938 12.397C10.7329 12.4623 11.2158 12.9644 11.3408 13.588L11.3999 13.8824L11.6206 13.883C12.0605 13.8841 12.583 14.3232 12.771 14.8501C12.8696 15.1266 12.8721 15.7559 12.7754 16.0226C12.7354 16.1337 12.6455 16.3147 12.5767 16.4246C12.5073 16.5339 12.4673 16.6404 12.4878 16.66C13.0557 17.2182 13.356 17.338 13.7026 17.143ZM9.45898 15.819C9.55859 15.7369 10.2983 14.7489 10.5366 14.381C10.709 14.1138 10.6855 13.7603 10.4775 13.4914C10.3271 13.297 10.2856 13.275 10.0674 13.275C9.78027 13.275 9.77002 13.2849 9.1792 14.0872C8.69531 14.7443 8.54541 15.008 8.54492 15.2041C8.54492 15.4152 8.69092 15.7293 8.83203 15.8201C9.00147 15.9289 9.32715 15.9283 9.45898 15.819ZM7.94385 14.3596C8.17383 14.2086 9.12451 12.8528 9.16064 12.6249C9.27002 11.9354 8.60205 11.5056 8.16748 11.9851C8.10107 12.058 7.83447 12.4155 7.57568 12.7782C7.11084 13.4295 7.10449 13.4428 7.10449 13.7413C7.10449 14.0791 7.19531 14.2485 7.44629 14.3798C7.64551 14.484 7.76172 14.4793 7.94385 14.3596ZM6.47949 12.8823C6.53857 12.8435 6.8291 12.4756 7.12549 12.065C7.69922 11.2702 7.77783 11.0793 7.66504 10.7565C7.56445 10.4679 7.3501 10.2961 7.09131 10.2961C6.8833 10.2961 6.84668 10.3192 6.61914 10.6004C6.4834 10.7675 6.20166 11.1458 5.99365 11.4408C5.65967 11.9146 5.61523 12.0048 5.61523 12.2096C5.61523 12.6579 5.84717 12.9517 6.20117 12.9523C6.29541 12.9529 6.42041 12.921 6.47949 12.8823ZM3.85693 6.03017C4.45752 4.22488 5.02051 2.53412 5.10742 2.27266L5.26514 1.79777L4.26172 1.33097C3.70996 1.07415 3.25146 0.871699 3.24365 0.881532C3.21484 0.91566 0.730469 8.40406 0.743652 8.4162C0.79248 8.4619 2.62744 9.30294 2.68848 9.30699C2.74463 9.31104 3.04932 8.45669 3.85693 6.03017Z" fill="#FF9100"/>
<path d="M12 36.333V20.467C12 20.209 11.776 20 11.5 20C11.224 20 11 20.209 11 20.467V36.333C11 36.591 11.224 36.8 11.5 36.8C11.776 36.8 12 36.591 12 36.333ZM12 42.571V38.498C12 38.248 11.776 38.045 11.5 38.045C11.224 38.045 11 38.248 11 38.498V42.571C11 42.821 11.224 43.022 11.5 43.022C11.776 43.022 12 42.821 12 42.571ZM12 47.557V45.333C12 45.088 11.776 44.889 11.5 44.889C11.224 44.889 11 45.088 11 45.333V47.557C11 47.8 11.224 48 11.5 48C11.776 48 12 47.801 12 47.557Z" fill="#4A4A4A"/>
</svg>
