<svg width="25" height="48" viewBox="0 0 25 48" fill="none" xmlns="http://www.w3.org/2000/svg">
<path d="M10.3851 18.7825C9.39365 18.9742 8.28843 18.7374 7.4386 18.1519C7.02836 17.8689 6.64234 17.3673 6.56455 17.0159C6.51758 16.803 6.50804 16.7972 6.07726 16.7101C4.27852 16.3486 3.16376 15.2593 3.24009 13.9385L3.26284 13.5415L2.937 13.4247C2.09817 13.1237 1.20211 12.2255 1.01864 11.5025C0.912963 11.0863 0.984882 10.4058 1.17129 10.058L1.3188 9.78148L1.03479 9.54419C0.63629 9.21081 0.333933 8.80631 0.145327 8.35297C-0.0829088 7.80619 -0.0374085 6.94781 0.247336 6.41272C0.583452 5.78048 1.34668 5.11798 2.07983 4.82124L2.36164 4.70764L2.32201 4.41567C2.10038 2.77748 3.94828 1.28368 6.19614 1.28368H6.79866L6.95644 1.08089C7.18761 0.783618 7.82902 0.369026 8.31411 0.202871C9.11404 -0.0705152 10.2589 -0.0673301 11.0698 0.210834C11.4823 0.352039 11.9835 0.667362 12.3453 1.01294L12.5346 1.19396L12.6491 1.03418C12.8187 0.796358 13.5202 0.355755 13.9995 0.186415C14.3928 0.047333 14.4831 0.0372469 15.3388 0.036716C16.207 0.0361852 16.2781 0.0441479 16.6598 0.188538C17.2351 0.405655 17.6299 0.652499 17.9396 0.990117L18.209 1.28368H18.821C19.574 1.28368 20.2088 1.41586 20.8113 1.69827C22.0017 2.25566 22.7084 3.22605 22.6658 4.24262L22.6467 4.68004L23.0093 4.84619C23.5626 5.10047 24.1681 5.58885 24.4983 6.04803C25.1214 6.9149 25.1654 7.88317 24.6231 8.79198C24.4748 9.04041 24.0022 9.55321 23.7997 9.68433C23.6588 9.77617 23.6587 9.78095 23.8261 10.1356C24.0338 10.5767 24.0594 11.3061 23.8818 11.7451C23.6169 12.4017 22.9007 13.0701 22.1132 13.3955L21.7323 13.5526V14.0405C21.7331 15.3373 20.6609 16.3661 18.9509 16.7101C18.5627 16.7881 18.4849 16.8237 18.4497 16.9394C18.1503 17.939 17.1537 18.6434 15.8033 18.8101C15.1678 18.8882 14.6093 18.8282 13.9863 18.6153C13.543 18.4635 12.7335 17.9602 12.6587 17.7898C12.5904 17.6332 12.462 17.6672 12.2198 17.9066C11.8059 18.3148 11.1263 18.6392 10.3851 18.7825ZM9.13312 18.274C9.49712 18.3371 9.77673 18.3292 10.2405 18.2416C11.0221 18.0945 11.5681 17.7612 11.913 17.2202C12.0642 16.984 12.0745 16.8816 12.0972 15.3644L12.1207 13.7586H12.8341L12.8583 15.3379C12.881 16.7945 12.895 16.9384 13.0366 17.1894C13.3463 17.7394 13.874 18.0728 14.7084 18.2464C15.5024 18.4115 16.3662 18.2421 16.9929 17.7994C17.3181 17.5701 17.7143 17.0557 17.6754 16.9145C17.6578 16.8529 17.489 16.7956 17.1258 16.7287C15.8841 16.5009 14.9491 15.9197 15.3535 15.6272C15.4812 15.5348 15.7292 15.5491 15.8936 15.6574C16.7977 16.2536 18.2347 16.4272 19.2628 16.0635C19.8352 15.8607 20.4671 15.4079 20.7379 15.0061C20.9361 14.712 20.9529 14.6424 20.9515 14.1036C20.9493 13.4401 20.8465 13.2134 20.3174 12.7059C20.095 12.493 20.0334 12.3922 20.0664 12.2961C20.1251 12.1284 20.3563 12.0381 20.5442 12.1108C20.7203 12.1793 21.1511 12.5594 21.3125 12.7898C21.4623 13.0032 21.6156 13.008 21.9877 12.81C22.8067 12.3741 23.2647 11.7111 23.2647 10.9626C23.2647 10.6653 23.1656 10.3367 23.0474 10.2407C23.0195 10.2178 22.8082 10.2619 22.5777 10.3383C22.1785 10.47 22.1492 10.4726 21.973 10.3893C21.838 10.3251 21.794 10.2635 21.8108 10.161C21.8292 10.049 21.9385 9.97683 22.3473 9.80855C23.3461 9.39608 23.9699 8.76331 24.1967 7.93094C24.3046 7.53228 24.3053 7.45796 24.2003 7.07309C24.1372 6.84111 23.9809 6.50031 23.8525 6.31664C23.5142 5.82985 22.621 5.20239 22.417 5.30803C22.3789 5.3282 22.2754 5.43915 22.1873 5.55487C21.7734 6.10111 21.3463 6.36123 21.0704 6.23648C20.8385 6.13137 20.8913 5.92646 21.2377 5.58672C21.8248 5.00969 22.0332 4.40665 21.874 3.74575C21.5775 2.51365 19.8719 1.60696 18.2229 1.80444C17.641 1.87451 16.8799 2.1256 16.502 2.37297C16.3464 2.47437 16.1769 2.55771 16.1255 2.55771C15.9457 2.55771 15.7057 2.39155 15.7057 2.2668C15.7057 2.11233 16.2238 1.77896 16.8227 1.54751C17.0531 1.45832 17.2608 1.3633 17.2843 1.3357C17.3577 1.25023 16.7339 0.813876 16.3398 0.675325C15.7762 0.477319 15.2412 0.449715 14.6306 0.586674C13.7074 0.794235 13.1548 1.21148 12.9434 1.85964C12.8752 2.06986 12.8458 2.59115 12.8451 3.60613L12.8436 5.05269H12.1097V3.60401C12.1097 2.1394 12.0606 1.79382 11.803 1.44293C11.1968 0.616932 9.76792 0.273474 8.61353 0.676387C8.26421 0.797951 7.63308 1.21838 7.63308 1.32933C7.63308 1.35534 7.73729 1.40842 7.86498 1.44665C8.14826 1.53105 8.77132 1.83257 9.04579 2.01731C9.28944 2.18134 9.30485 2.36342 9.08468 2.4749C8.85425 2.59168 8.78673 2.58107 8.44401 2.37404C8.01396 2.11445 7.3087 1.87663 6.76196 1.80709C5.07111 1.59263 3.3443 2.5232 3.07056 3.79777C2.92452 4.47566 3.14615 5.05853 3.77508 5.6552C3.91966 5.79163 4.03708 5.95778 4.03708 6.02467C4.03708 6.30921 3.62978 6.35911 3.32522 6.11173C3.10726 5.93496 2.59648 5.40411 2.55318 5.30909C2.51281 5.22256 2.24422 5.33882 1.81196 5.63078C0.042584 6.82413 0.439612 8.9146 2.60602 9.80855C3.18064 10.0453 3.29072 10.2035 3.00965 10.3877C2.96268 10.4185 2.92892 10.4403 2.89003 10.4514C2.79169 10.4785 2.65665 10.436 2.18404 10.2868H2.18257L1.90663 10.1998L1.82297 10.3468C1.67032 10.6149 1.66078 11.1935 1.80242 11.5747C1.99837 12.1029 2.36017 12.4877 2.96562 12.81C3.33769 13.008 3.49107 13.0032 3.64078 12.7898C3.80224 12.5594 4.23302 12.1793 4.40915 12.1108C4.59703 12.0381 4.8282 12.1284 4.88691 12.2961C4.91993 12.3922 4.85829 12.493 4.63592 12.7059C4.1068 13.2134 4.00405 13.4401 4.00185 14.1036C4.00038 14.643 4.01653 14.712 4.21541 15.0061C4.48548 15.4047 5.12175 15.8597 5.69564 16.0641C6.71573 16.4272 8.15706 16.253 9.05973 15.6574C9.35548 15.4621 9.71949 15.5847 9.67472 15.865C9.62849 16.1559 8.45795 16.6697 7.59711 16.777C7.22064 16.8242 7.19495 16.9203 7.45841 17.2972C7.79746 17.7813 8.43447 18.1529 9.13312 18.274Z" fill="#A75F02"/>
<path d="M9.13289 18.274C8.43424 18.1529 7.79723 17.7813 7.45818 17.2972C7.19472 16.9203 7.22041 16.8242 7.59689 16.777C8.45772 16.6697 9.62826 16.1559 9.67449 15.865C9.71926 15.5847 9.35526 15.4621 9.0595 15.6574C8.15684 16.253 6.7155 16.4271 5.69541 16.064C5.12152 15.8597 4.48525 15.4047 4.21518 15.0061C4.0163 14.712 4.00015 14.643 4.00162 14.1036C4.00382 13.4401 4.10657 13.2134 4.63569 12.7059C4.85806 12.493 4.9197 12.3922 4.88668 12.2961C4.82797 12.1283 4.5968 12.0381 4.40892 12.1108C4.23279 12.1793 3.80201 12.5594 3.64056 12.7898C3.49084 13.0032 3.33746 13.0079 2.96539 12.8099C2.35994 12.4877 1.99814 12.1029 1.80219 11.5747C1.66055 11.1935 1.67009 10.6149 1.82274 10.3468L1.9064 10.1998L2.18234 10.2868H2.18381V10.2874C2.65643 10.436 2.79146 10.4785 2.8898 10.4514C2.92869 10.4402 2.96245 10.4185 3.00942 10.3877C3.2905 10.2035 3.18041 10.0453 2.60579 9.80853C0.439382 8.91459 0.0423548 6.82411 1.81173 5.63077C2.24399 5.3388 2.51259 5.22255 2.55295 5.30907C2.59625 5.4041 3.10703 5.93494 3.32499 6.11172C3.62955 6.35909 4.03685 6.30919 4.03685 6.02466C4.03685 5.95777 3.91943 5.79161 3.77485 5.65519C3.14592 5.05851 2.92429 4.47564 3.07033 3.79775C3.34407 2.52319 5.07088 1.59261 6.76173 1.80708C7.30847 1.87662 8.01373 2.11444 8.44378 2.37402C8.7865 2.58105 8.85402 2.59167 9.08446 2.47488C9.30462 2.3634 9.28921 2.18132 9.04556 2.01729C8.77109 1.83256 8.14803 1.53104 7.86475 1.44663C7.73706 1.40841 7.63285 1.35533 7.63285 1.32931C7.63285 1.21837 8.26398 0.797936 8.61331 0.676372C9.7677 0.273459 11.1966 0.616918 11.8027 1.44292C12.0603 1.79381 12.1095 2.13939 12.1095 3.60399V5.05268H12.4581C12.0889 5.05639 11.7279 5.08293 11.6009 5.13018C11.3477 5.2252 11.3132 5.28625 11.2252 5.79427C11.1408 6.2784 10.9881 6.45305 10.63 6.47535C10.4142 6.48862 10.2998 6.44615 9.87851 6.19665C9.16665 5.77463 8.96704 5.78896 8.19573 6.3214C7.50955 6.79438 7.48827 6.99823 8.07244 7.50413C8.37039 7.76212 8.44011 7.86033 8.44011 8.0217C8.44011 8.31526 8.27499 8.3933 7.48974 8.4708C6.55845 8.56317 6.50341 8.60776 6.46965 9.30423C6.44323 9.87064 6.52102 10.1122 6.76027 10.2051C6.83439 10.2337 7.15216 10.2805 7.46552 10.3091C8.13996 10.3707 8.39314 10.4811 8.4269 10.7285C8.45259 10.9169 8.37406 11.0221 7.93154 11.3921C7.46185 11.7843 7.52937 12.0349 8.23316 12.5169C8.94575 13.0042 9.14904 13.0133 9.84769 12.5912C10.2044 12.3757 10.3401 12.3253 10.5632 12.3253C10.958 12.3253 11.0674 12.4421 11.165 12.9665C11.2545 13.4496 11.3668 13.6317 11.6185 13.705C11.893 13.7851 13.1193 13.7681 13.352 13.6811C13.6051 13.586 13.6396 13.525 13.7277 13.017C13.8121 12.5328 13.9647 12.3582 14.3229 12.3359C14.5386 12.3226 14.6531 12.3651 15.0744 12.6146C15.7774 13.0318 15.9888 13.0191 16.719 12.5164C17.4389 12.0211 17.4661 11.8146 16.8804 11.3071C16.5825 11.0491 16.5128 10.9509 16.5128 10.7895C16.5128 10.496 16.6779 10.4179 17.4631 10.3404C18.3944 10.2481 18.4495 10.2035 18.4832 9.50701C18.5096 8.9406 18.4319 8.69906 18.1926 8.60617C18.1185 8.5775 17.8007 8.53078 17.4873 8.50212C16.799 8.43948 16.559 8.33119 16.5274 8.07001C16.5091 7.91394 16.5678 7.83113 16.9127 7.52642C17.4984 7.00991 17.4661 6.805 16.7197 6.29433C16.0071 5.80701 15.8038 5.79798 15.1052 6.22001C14.7485 6.43553 14.6128 6.48596 14.3897 6.48596C13.9919 6.48596 13.8708 6.36121 13.7893 5.86593C13.6991 5.32182 13.6139 5.17849 13.3395 5.10894C13.1993 5.07391 12.9212 5.05533 12.6254 5.05268H12.8434L12.8448 3.60612C12.8456 2.59114 12.8749 2.06985 12.9432 1.85963C13.1545 1.21147 13.7071 0.794221 14.6304 0.586659C15.241 0.449701 15.7759 0.477305 16.3396 0.675311C16.7337 0.813862 17.3575 1.25022 17.2841 1.33568C17.2606 1.36329 17.0529 1.45831 16.8225 1.54749C16.2236 1.77894 15.7055 2.11231 15.7055 2.26679C15.7055 2.39154 15.9455 2.55769 16.1253 2.55769C16.1766 2.55769 16.3462 2.47435 16.5018 2.37296C16.8797 2.12558 17.6407 1.87449 18.2227 1.80442C19.8717 1.60695 21.5772 2.51363 21.8737 3.74573C22.033 4.40663 21.8246 5.00968 21.2375 5.58671C20.8911 5.92645 20.8382 6.13136 21.0701 6.23646C21.3461 6.36121 21.7732 6.1011 22.1871 5.55486C22.2752 5.43913 22.3786 5.32818 22.4168 5.30801C22.6208 5.20237 23.5139 5.82984 23.8523 6.31662C23.9807 6.5003 24.137 6.8411 24.2001 7.07308C24.3051 7.45794 24.3043 7.53226 24.1965 7.93093C23.9697 8.7633 23.3459 9.39607 22.3471 9.80853C21.9383 9.97681 21.829 10.049 21.8106 10.161C21.7937 10.2635 21.8378 10.325 21.9728 10.3893C22.1489 10.4726 22.1783 10.47 22.5775 10.3383C22.808 10.2619 23.0193 10.2178 23.0472 10.2406C23.1654 10.3367 23.2644 10.6653 23.2644 10.9626C23.2644 11.7111 22.8065 12.3741 21.9875 12.8099C21.6154 13.0079 21.462 13.0032 21.3123 12.7898C21.1509 12.5594 20.7201 12.1793 20.5439 12.1108C20.3561 12.0381 20.1249 12.1283 20.0662 12.2961C20.0332 12.3922 20.0948 12.493 20.3172 12.7059C20.8463 13.2134 20.949 13.4401 20.9513 14.1036C20.9527 14.6424 20.9358 14.712 20.7377 15.0061C20.4669 15.4079 19.835 15.8607 19.2626 16.0635C18.2344 16.4271 16.7975 16.2535 15.8934 15.6574C15.729 15.5491 15.4809 15.5348 15.3532 15.6271C14.9489 15.9196 15.8838 16.5009 17.1255 16.7287C17.4888 16.7955 17.6576 16.8529 17.6752 16.9145C17.7141 17.0557 17.3178 17.57 16.9927 17.7994C16.366 18.2421 15.5022 18.4114 14.7082 18.2463C13.8737 18.0728 13.3461 17.7394 13.0364 17.1894C12.8947 16.9383 12.8808 16.7945 12.8581 15.3378L12.8338 13.7586H12.1205L12.097 15.3644C12.0743 16.8815 12.064 16.984 11.9128 17.2202C11.5679 17.7612 11.0219 18.0945 10.2403 18.2416C9.7765 18.3292 9.49689 18.3371 9.13289 18.274Z" fill="#FF9100"/>
<path d="M12.4582 5.05273H12.6255C12.9213 5.05539 13.1994 5.07397 13.3396 5.109C13.6141 5.17855 13.6992 5.32187 13.7894 5.86599C13.8709 6.36127 13.992 6.48602 14.3898 6.48602C14.6129 6.48602 14.7486 6.43559 15.1053 6.22007C15.8039 5.79804 16.0072 5.80707 16.7198 6.29439C17.4662 6.80506 17.4985 7.00997 16.9128 7.52648C16.5679 7.83119 16.5092 7.914 16.5275 8.07007C16.5591 8.33125 16.7991 8.43954 17.4875 8.50218C17.8008 8.53084 18.1186 8.57756 18.1927 8.60623C18.432 8.69912 18.5097 8.94066 18.4833 9.50707C18.4496 10.2035 18.3945 10.2481 17.4632 10.3405C16.678 10.418 16.5129 10.496 16.5129 10.7896C16.5129 10.951 16.5826 11.0492 16.8805 11.3072C17.4662 11.8147 17.439 12.0212 16.7191 12.5164C15.9889 13.0192 15.7775 13.0319 15.0745 12.6147C14.6532 12.3652 14.5387 12.3227 14.323 12.336C13.9648 12.3583 13.8122 12.5329 13.7278 13.017C13.6397 13.5251 13.6052 13.5861 13.3521 13.6811C13.1194 13.7682 11.8931 13.7852 11.6186 13.705C11.3669 13.6318 11.2546 13.4497 11.1651 12.9666C11.0675 12.4421 10.9581 12.3253 10.5633 12.3253C10.3402 12.3253 10.2045 12.3758 9.84779 12.5913C9.14914 13.0133 8.94586 13.0043 8.23326 12.517C7.52947 12.035 7.46196 11.7844 7.93164 11.3921C8.37417 11.0221 8.45269 10.917 8.42701 10.7286C8.39325 10.4812 8.14006 10.3708 7.46563 10.3092C7.15226 10.2805 6.83449 10.2338 6.76037 10.2051C6.52113 10.1122 6.44334 9.8707 6.46976 9.30429C6.50351 8.60782 6.55856 8.56323 7.48985 8.47086C8.27509 8.39336 8.44022 8.31532 8.44022 8.02176C8.44022 7.86038 8.3705 7.76218 8.07254 7.50419C7.48838 6.99829 7.50966 6.79444 8.19584 6.32146C8.96714 5.78902 9.16676 5.77469 9.87862 6.19671C10.2999 6.44621 10.4143 6.48868 10.6301 6.4754C10.9882 6.45311 11.1409 6.27846 11.2253 5.79433C11.3133 5.28631 11.3478 5.22526 11.601 5.13024C11.728 5.08299 12.0891 5.05645 12.4582 5.05273Z" fill="#EDBB7C"/>
<path d="M13 36.333V20.467C13 20.209 12.776 20 12.5 20C12.224 20 12 20.209 12 20.467V36.333C12 36.591 12.224 36.8 12.5 36.8C12.776 36.8 13 36.591 13 36.333ZM13 42.571V38.498C13 38.248 12.776 38.045 12.5 38.045C12.224 38.045 12 38.248 12 38.498V42.571C12 42.821 12.224 43.022 12.5 43.022C12.776 43.022 13 42.821 13 42.571ZM13 47.557V45.333C13 45.088 12.776 44.889 12.5 44.889C12.224 44.889 12 45.088 12 45.333V47.557C12 47.8 12.224 48 12.5 48C12.776 48 13 47.801 13 47.557Z" fill="#4A4A4A"/>
</svg>
