<svg width="25" height="48" viewBox="0 0 25 48" fill="none" xmlns="http://www.w3.org/2000/svg">
<path d="M8.30078 17.856C6.08496 17.6337 4.18652 17.4333 4.08154 17.4104C3.67334 17.3223 3.25439 17.0501 3.06641 16.7512C2.9751 16.606 2.95459 16.5133 2.95605 16.2518C2.95801 15.9746 2.97607 15.9054 3.08936 15.7459C3.16162 15.6443 3.24316 15.5512 3.27051 15.5387C3.35645 15.4998 3.3252 15.4595 3.17529 15.4138C3.09521 15.3896 2.94238 15.3007 2.83594 15.2162C2.24707 14.7492 2.49365 13.9948 3.30811 13.7722C3.51514 13.7154 3.68896 13.7012 4.16455 13.7008L4.76074 13.7005L5.50537 12.7455L6.25 11.7905L6.25049 10.0972C6.25098 8.25824 6.2627 8.16228 6.52197 7.87654C6.79395 7.57582 7.21924 7.37462 7.67529 7.32968L7.90479 7.3072L7.92139 5.12653L7.93848 2.94585L8.0708 2.58913C8.5835 1.20824 9.94287 0.268616 11.7354 0.0560062C13.8101 -0.189779 15.7241 0.497278 16.6064 1.80433C17.0728 2.49531 17.0591 2.40399 17.0781 5.01951L17.0952 7.3072L17.3242 7.32968C17.7808 7.37462 18.2061 7.57582 18.478 7.87654C18.7373 8.16228 18.749 8.25824 18.7495 10.0972L18.75 11.7905L19.4932 12.7427L20.2368 13.6948L20.9214 13.7076C21.709 13.7226 21.8809 13.7661 22.1885 14.0283C22.3579 14.1731 22.5098 14.4485 22.5098 14.6108C22.5098 14.8998 22.1572 15.3132 21.8247 15.4138C21.6748 15.4595 21.6436 15.4998 21.7295 15.5387C21.7568 15.5512 21.8389 15.6443 21.9121 15.7459C22.0278 15.9072 22.0449 15.9718 22.0454 16.2518C22.0459 16.5279 22.0278 16.6003 21.9146 16.769C21.7051 17.0833 21.395 17.2888 20.9761 17.3912C20.7554 17.445 12.6636 18.2716 12.4316 18.2637C12.3755 18.2619 10.5166 18.0786 8.30078 17.856ZM13.4922 17.5574C14.0513 17.5003 14.5161 17.4482 14.5259 17.4415C14.5352 17.4347 14.0444 17.2025 13.436 16.926L12.3291 16.423L8.47168 16.0424C6.3501 15.833 4.56396 15.6618 4.50244 15.6625C4.32861 15.6635 4.02344 15.7927 3.90381 15.9154C3.78809 16.0342 3.72803 16.2796 3.77881 16.4273C3.82129 16.5507 4.06934 16.7505 4.24658 16.8044C4.34766 16.835 11.2783 17.557 12.4268 17.6566C12.4536 17.6591 12.9331 17.6141 13.4922 17.5574ZM18.3452 17.0737C19.6562 16.9428 20.7095 16.8215 20.7866 16.7919C20.9639 16.7244 21.123 16.5978 21.188 16.4722C21.3662 16.1287 21.0488 15.721 20.5664 15.6742C20.438 15.6618 14.7603 16.1976 13.7695 16.3156C13.6699 16.3278 15.8145 17.3041 15.9399 17.3041C15.9951 17.3041 17.0776 17.2003 18.3452 17.0737ZM14.5508 15.6232C15.5845 15.5219 16.4385 15.4342 16.4482 15.4281C16.4585 15.422 16.0981 15.1035 15.6484 14.7196L14.8306 14.0222H12.5H10.1694L9.35156 14.7196C8.90186 15.1035 8.5415 15.4224 8.55176 15.4288C8.58936 15.4534 12.481 15.8319 12.5732 15.8198C12.627 15.813 13.5171 15.7245 14.5508 15.6232ZM8.25195 14.7293C8.6416 14.3947 9.08936 14.0098 9.24707 13.8742L9.53418 13.6277L9.47217 13.4137C9.43799 13.2959 9.39453 13.1928 9.37549 13.1843C9.35645 13.1757 8.76367 13.6377 8.05762 14.2109L6.77441 15.2529L7.11035 15.2933C7.29492 15.3154 7.46826 15.3346 7.49512 15.3357C7.52197 15.3368 7.8623 15.0639 8.25195 14.7293ZM18.0366 15.2747L18.2266 15.2522L16.9443 14.2095C16.2393 13.6363 15.646 13.1743 15.6265 13.1832C15.6064 13.1925 15.562 13.2959 15.5278 13.4137L15.4658 13.6277L15.7529 13.8742C15.9106 14.0098 16.3584 14.3943 16.748 14.7286L17.4561 15.3364L17.6514 15.3168C17.7588 15.3057 17.9321 15.2868 18.0366 15.2747ZM7.42188 13.82C8.16016 13.2185 8.84766 12.6581 8.94873 12.5743L9.13281 12.422L8.37207 10.1999C7.95361 8.9774 7.60352 7.97178 7.59424 7.96501C7.54297 7.92755 7.18652 8.22328 7.13721 8.34421C7.09717 8.44231 7.08008 8.99844 7.08008 10.2227V11.9625L6.24316 13.037C5.78271 13.6281 5.354 14.1514 5.29004 14.2006C5.17773 14.2869 5.14893 14.2905 4.37061 14.3076C3.63428 14.324 3.55811 14.3319 3.46338 14.4011C3.30469 14.5174 3.31445 14.7228 3.48389 14.8295C3.61816 14.9137 3.62451 14.9141 4.84912 14.9137H6.0791L7.42188 13.82ZM21.5161 14.8295C21.6855 14.7228 21.6953 14.5174 21.5366 14.4011C21.4419 14.3319 21.3657 14.324 20.6294 14.3076C19.8511 14.2905 19.8223 14.2869 19.71 14.2006C19.646 14.1514 19.2173 13.6281 18.7568 13.037L17.9199 11.9625V10.2227C17.9199 8.99844 17.9028 8.44231 17.8628 8.34421C17.8135 8.22328 17.457 7.92755 17.4058 7.96501C17.3965 7.97178 17.0464 8.9774 16.6279 10.1999L15.8672 12.422L16.0513 12.5746C16.1523 12.6585 16.8398 13.2192 17.5781 13.8203L18.9209 14.9137H20.1509C21.3755 14.9141 21.3818 14.9137 21.5161 14.8295ZM15.5962 10.7136C16.0977 9.24708 16.519 8.01887 16.5337 7.98463C16.5571 7.92755 16.5098 7.9222 15.9946 7.9222H15.4297V8.22007C15.4297 8.55896 15.3672 8.72626 15.2192 8.78441C14.9829 8.8768 12.6587 9.42045 12.5 9.42045C12.3413 9.42045 10.0171 8.8768 9.78076 8.78441C9.63281 8.72626 9.57031 8.55896 9.57031 8.22007V7.9222H9.00537C8.49023 7.9222 8.44287 7.92755 8.46631 7.98463C8.48096 8.01887 8.90234 9.24708 9.40381 10.7136L10.3149 13.3801H12.5H14.6851L15.5962 10.7136ZM13.562 8.56145L14.5996 8.30854V8.11876V7.92862L14.0884 7.91649C13.333 7.89866 13.3584 7.92898 13.3394 7.02824L13.3242 6.31443L13.144 6.34261C12.9102 6.37864 12.0884 6.37864 11.853 6.3419L11.6699 6.31372V7.00898C11.6699 7.69211 11.668 7.70602 11.5522 7.80412C11.439 7.90044 11.4141 7.90472 10.9175 7.91649L10.4004 7.92862V8.11876V8.30854L11.4136 8.5586C11.9707 8.69594 12.4487 8.80974 12.4756 8.81116C12.5024 8.81259 12.9912 8.70022 13.562 8.56145ZM10.8398 6.69506V6.07471L10.5835 5.95485C9.93555 5.65234 9.35791 5.20215 8.95361 4.68383L8.74023 4.41022V5.86281V7.31576H9.79004H10.8398V6.69506ZM16.2598 5.86281V4.41022L16.043 4.68811C15.6396 5.20501 15.1123 5.6156 14.4189 5.95164L14.1602 6.07721V6.69648V7.31576H15.21H16.2598V5.86281ZM13.0635 5.72654C13.8013 5.58671 14.4648 5.2471 14.9888 4.74162C15.2124 4.5258 15.5762 4.05706 15.5762 3.985C15.5762 3.97751 15.4058 3.96074 15.1973 3.94754C14.1582 3.88119 13.2563 3.42886 12.8086 2.74823C12.7061 2.59234 12.6108 2.46463 12.5967 2.46463C12.5825 2.46427 12.4399 2.53597 12.2793 2.62409C11.6226 2.98331 10.5498 3.34539 9.68652 3.49949L9.24121 3.57904L9.32666 3.77988C9.65283 4.54364 10.4263 5.23569 11.3281 5.57065C11.8726 5.77256 12.5161 5.83035 13.0635 5.72654ZM16.2598 3.2291C16.2598 3.00364 16.1538 2.59519 16.0313 2.34584C15.8633 2.00588 15.6191 1.7155 15.2744 1.44617C14.6353 0.947111 13.8213 0.668864 12.8623 0.621419C11.2573 0.541512 9.78906 1.15829 9.12891 2.18852C8.98096 2.41968 8.76953 2.96155 8.81494 2.99437C8.86377 3.0304 9.84033 2.85061 10.2783 2.72504C11.0664 2.49887 11.7544 2.18781 12.4219 1.7551C12.6948 1.57816 12.7905 1.53678 12.9258 1.53678C13.1831 1.53678 13.292 1.65236 13.3594 1.99696C13.4326 2.3701 13.6162 2.64192 13.9717 2.90233C14.437 3.24336 14.8384 3.34432 15.7593 3.35181L16.2598 3.35609V3.2291ZM20.8496 7.61898V7.31576H20.4346H20.0195V7.01254V6.70933H20.4346H20.8496V6.40611V6.10289H21.2646H21.6797V6.40611V6.70933H22.0947H22.5098V7.01254V7.31576H22.0947H21.6797V7.61898V7.9222H21.2646H20.8496V7.61898ZM21.6797 7.01254V6.70933H21.2646H20.8496V7.01254V7.31576H21.2646H21.6797V7.01254ZM3.75977 6.69149V6.38827H3.34473H2.92969V6.08505V5.78184H3.34473H3.75977V5.47862V5.1754H4.1748H4.58984V5.47862V5.78184H5.00488H5.41992V6.08505V6.38827H5.00488H4.58984V6.69149V6.99471H4.1748H3.75977V6.69149ZM4.58984 6.08505V5.78184H4.1748H3.75977V6.08505V6.38827H4.1748H4.58984V6.08505ZM1.26953 6.08505V5.78184H1.68457H2.09961V6.08505V6.38827H1.68457H1.26953V6.08505ZM0.830078 2.73182V2.4286H0.415039H0V2.12538V1.82216H0.415039H0.830078V1.51894V1.21573H1.24512H1.66016V1.51894V1.82216H2.0752H2.49023V2.12538V2.4286H2.0752H1.66016V2.73182V3.03504H1.24512H0.830078V2.73182ZM1.66016 2.12538V1.82216H1.24512H0.830078V2.12538V2.4286H1.24512H1.66016V2.12538ZM23.3398 1.51894V1.21573H22.9248H22.5098V0.912508V0.60929H22.9248H23.3398V0.306072V0.00285382H23.7549H24.1699V0.306072V0.60929H24.585H25V0.912508V1.21573H24.585H24.1699V1.51894V1.82216H23.7549H23.3398V1.51894ZM24.1699 0.912508V0.60929H23.7549H23.3398V0.912508V1.21573H23.7549H24.1699V0.912508ZM20.8496 0.912508V0.60929H21.2646H21.6797V0.912508V1.21573H21.2646H20.8496V0.912508ZM5.8208 0.31499L5.83496 0.0206902L6.26221 0.0103451L6.68945 0V0.304645V0.60929H6.24805H5.80664L5.8208 0.31499Z" fill="#FF9100"/>
<path d="M12 36.333V20.467C12 20.209 12.224 20 12.5 20C12.776 20 13 20.209 13 20.467V36.333C13 36.591 12.776 36.8 12.5 36.8C12.224 36.8 12 36.591 12 36.333ZM12 42.571V38.498C12 38.248 12.224 38.045 12.5 38.045C12.776 38.045 13 38.248 13 38.498V42.571C13 42.821 12.776 43.022 12.5 43.022C12.224 43.022 12 42.821 12 42.571ZM12 47.557V45.333C12 45.088 12.224 44.889 12.5 44.889C12.776 44.889 13 45.088 13 45.333V47.557C13 47.8 12.776 48 12.5 48C12.224 48 12 47.801 12 47.557Z" fill="#4A4A4A"/>
</svg>
