<svg width="3020" height="423" viewBox="0 0 3020 423" fill="none" xmlns="http://www.w3.org/2000/svg">
<path d="M2388.17 348.42V122.661H2353V69H2482.56V122.661H2447.39V348.42H2388.17Z" fill="white"/>
<path d="M1567 351V72H1615V351H1567Z" fill="white"/>
<path d="M2819 348V69H2867V348H2819Z" fill="white"/>
<path d="M657 350.42V71H782.461V124.979H720.8V179.434H779.966V231.984H720.8V295.965H786.56V350.42H657Z" fill="white"/>
<path d="M511 348.42V69H582.528C601.722 69 615.668 73.9745 624.365 83.9236C633.162 93.7668 637.561 110.066 637.561 132.822V145.047C637.561 158.171 635.312 168.808 630.813 176.958C626.414 185.107 619.666 190.452 610.569 192.993C622.466 196.168 630.413 203.63 634.412 215.378C638.511 227.02 640.56 241.256 640.56 258.085C640.56 276.184 638.96 292.007 635.761 305.554C632.562 319.102 626.764 329.633 618.367 337.148C609.969 344.663 598.023 348.42 582.528 348.42H511ZM562.584 174.259H573.381C578.279 174.259 581.428 172.248 582.828 168.226C584.227 164.204 584.927 159.388 584.927 153.779V125.678C584.927 116.681 581.178 112.183 573.681 112.183H562.584V174.259ZM567.832 299.204C581.528 299.204 588.376 292.324 588.376 278.565V243.638C588.376 235.699 587.226 229.455 584.927 224.904C582.728 220.247 578.529 217.918 572.331 217.918H562.584V298.886C564.783 299.098 566.533 299.204 567.832 299.204Z" fill="white"/>
<path d="M2570.78 347.42C2549.78 347.42 2533.71 342.209 2522.57 331.787C2511.52 321.283 2506 306.143 2506 286.366V183.461C2506 164.915 2511.47 150.841 2522.42 141.24C2533.46 131.639 2549.58 126.838 2570.78 126.838C2591.98 126.838 2608.05 131.639 2618.99 141.24C2630.04 150.841 2635.56 164.915 2635.56 183.461V286.366C2635.56 306.143 2629.99 321.283 2618.84 331.787C2607.8 342.209 2591.78 347.42 2570.78 347.42ZM2571.23 307.538C2579.19 307.538 2583.17 301.178 2583.17 288.459V182.722C2583.17 172.054 2579.29 166.72 2571.53 166.72C2562.77 166.72 2558.39 172.177 2558.39 183.092V288.705C2558.39 295.434 2559.39 300.276 2561.38 303.23C2563.37 306.102 2566.65 307.538 2571.23 307.538ZM2535.4 122.284V94.8342L2606.3 68V110.713L2535.4 122.284Z" fill="white"/>
<path d="M1414 350.42V71H1486.41C1505.36 71 1519.62 76.6096 1529.2 87.8287C1538.77 98.942 1543.56 115.241 1543.56 136.727V267.547C1543.56 294.007 1539.17 314.434 1530.39 328.828C1521.72 343.223 1506.46 350.42 1484.61 350.42H1414ZM1466.96 301.045H1476.09C1485.76 301.045 1490.6 296.071 1490.6 286.122V141.966C1490.6 132.652 1489.4 126.672 1487.01 124.026C1484.71 121.274 1479.98 119.899 1472.8 119.899H1466.96V301.045Z" fill="white"/>
<path d="M957 348.42V69H1011.28L1035.58 202.836V69H1086.56V348.42H1034.98L1008.58 208.71V348.42H957Z" fill="white"/>
<path d="M2194 351.42V72H2248.28L2272.58 205.836V72H2323.56V351.42H2271.98L2245.58 211.71V351.42H2194Z" fill="white"/>
<path d="M1645 348.42V69H1699.28L1723.58 202.836V69H1774.56V348.42H1722.98L1696.58 208.71V348.42H1645Z" fill="white"/>
<path d="M2659 351.42V72H2713.28L2737.58 205.836V72H2788.56V351.42H2736.98L2710.58 211.71V351.42H2659Z" fill="white"/>
<path d="M809 348.42V69H890.352C903.91 69 914.155 72.2811 921.084 78.8432C928.014 85.2995 932.634 94.4018 934.944 106.15C937.355 117.793 938.56 131.499 938.56 147.269C938.56 162.51 936.702 174.682 932.986 183.784C929.37 192.887 922.491 199.184 912.347 202.677C920.683 204.476 926.508 208.869 929.822 215.854C933.237 222.734 934.944 231.677 934.944 242.685V348.42H882.668V239.033C882.668 230.884 881.061 225.856 877.848 223.951C874.734 221.94 869.662 220.935 862.632 220.935V348.42H809ZM862.933 172.512H875.738C883.07 172.512 886.736 164.098 886.736 147.269C886.736 136.368 885.933 129.223 884.326 125.837C882.719 122.45 879.706 120.756 875.287 120.756H862.933V172.512Z" fill="white"/>
<path d="M1262 350.42V71H1343.35C1356.91 71 1367.15 74.2811 1374.08 80.8432C1381.01 87.2995 1385.63 96.4018 1387.94 108.15C1390.35 119.793 1391.56 133.499 1391.56 149.269C1391.56 164.51 1389.7 176.682 1385.99 185.784C1382.37 194.887 1375.49 201.184 1365.35 204.677C1373.68 206.476 1379.51 210.869 1382.82 217.854C1386.24 224.734 1387.94 233.677 1387.94 244.685V350.42H1335.67V241.033C1335.67 232.884 1334.06 227.856 1330.85 225.951C1327.73 223.94 1322.66 222.935 1315.63 222.935V350.42H1262ZM1315.93 174.512H1328.74C1336.07 174.512 1339.74 166.098 1339.74 149.269C1339.74 138.368 1338.93 131.223 1337.33 127.837C1335.72 124.45 1332.71 122.756 1328.29 122.756H1315.93V174.512Z" fill="white"/>
<path d="M2954.78 351.42C2933.78 351.42 2917.71 344.819 2906.57 331.617C2895.52 318.312 2890 299.133 2890 274.081V143.726C2890 120.233 2895.47 102.406 2906.42 90.2434C2917.46 78.0811 2933.58 72 2954.78 72C2975.98 72 2992.05 78.0811 3002.99 90.2434C3014.04 102.406 3019.56 120.233 3019.56 143.726V274.081C3019.56 299.133 3013.99 318.312 3002.84 331.617C2991.8 344.819 2975.78 351.42 2954.78 351.42ZM2955.23 300.9C2963.19 300.9 2967.17 292.844 2967.17 276.731V142.791C2967.17 129.277 2963.29 122.52 2955.53 122.52C2946.77 122.52 2942.39 129.433 2942.39 143.258V277.043C2942.39 285.567 2943.39 291.7 2945.38 295.442C2947.37 299.081 2950.65 300.9 2955.23 300.9Z" fill="white"/>
<path d="M1868.78 351.42C1847.78 351.42 1831.71 344.819 1820.57 331.617C1809.52 318.312 1804 299.133 1804 274.081V143.726C1804 120.233 1809.47 102.406 1820.42 90.2434C1831.46 78.0811 1847.58 72 1868.78 72C1889.98 72 1906.05 78.0811 1916.99 90.2434C1928.04 102.406 1933.56 120.233 1933.56 143.726V274.081C1933.56 299.133 1927.99 318.312 1916.84 331.617C1905.8 344.819 1889.78 351.42 1868.78 351.42ZM1869.23 300.9C1877.19 300.9 1881.17 292.844 1881.17 276.731V142.791C1881.17 129.277 1877.29 122.52 1869.53 122.52C1860.77 122.52 1856.39 129.433 1856.39 143.258V277.043C1856.39 285.567 1857.39 291.7 1859.38 295.442C1861.37 299.081 1864.65 300.9 1869.23 300.9Z" fill="white"/>
<path d="M1110 348.42L1133.58 69H1216.39L1239.56 348.42H1193.37L1189.9 303.332H1160.49L1157.44 348.42H1110ZM1163.96 258.72H1186.15L1175.47 116.628H1173.25L1163.96 258.72Z" fill="white"/>
<path d="M2043 348.42L2066.58 69H2149.39L2172.56 348.42H2126.37L2122.9 303.332H2093.49L2090.44 348.42H2043ZM2096.96 258.72H2119.15L2108.47 116.628H2106.25L2096.96 258.72Z" fill="white"/>
<path d="M423 211.5C423 328.308 328.308 423 211.5 423C94.6918 423 0 328.308 0 211.5C0 94.6918 94.6918 0 211.5 0C328.308 0 423 94.6918 423 211.5ZM37.2993 211.5C37.2993 307.708 115.292 385.701 211.5 385.701C307.708 385.701 385.701 307.708 385.701 211.5C385.701 115.292 307.708 37.2993 211.5 37.2993C115.292 37.2993 37.2993 115.292 37.2993 211.5Z" fill="white"/>
<path d="M150 348.42V69H221.528C240.722 69 254.668 73.9745 263.365 83.9236C272.162 93.7668 276.561 110.066 276.561 132.822V145.047C276.561 158.171 274.312 168.808 269.813 176.958C265.414 185.107 258.666 190.452 249.569 192.993C261.466 196.168 269.413 203.63 273.412 215.378C277.511 227.02 279.56 241.256 279.56 258.085C279.56 276.184 277.96 292.007 274.761 305.554C271.562 319.102 265.764 329.633 257.367 337.148C248.969 344.663 237.023 348.42 221.528 348.42H150ZM201.584 174.259H212.381C217.279 174.259 220.428 172.248 221.828 168.226C223.227 164.204 223.927 159.388 223.927 153.779V125.678C223.927 116.681 220.178 112.183 212.681 112.183H201.584V174.259ZM206.832 299.204C220.528 299.204 227.376 292.324 227.376 278.565V243.638C227.376 235.699 226.226 229.455 223.927 224.904C221.728 220.247 217.529 217.918 211.331 217.918H201.584V298.886C203.783 299.098 205.533 299.204 206.832 299.204Z" fill="white"/>
</svg>
